<svg class="svg-icon" style="width: 1em; height: 1em;vertical-align: middle;fill: currentColor;overflow: hidden;" viewBox="0 0 1024 1024" version="1.1" xmlns="http://www.w3.org/2000/svg"><path d="M793.6 153.6c0-6.4-6.4-6.4-12.8-6.4 0 0 0 0 0 0L678.4 128c-6.4 0-19.2 6.4-19.2 12.8 0 6.4 6.4 19.2 12.8 19.2l76.8 12.8C710.4 204.8 620.8 262.4 492.8 320 345.6 384 192 422.4 192 422.4l0 12.8c0 0 166.4-38.4 307.2-96 121.6-51.2 224-108.8 268.8-153.6l-19.2 76.8c0 6.4 0 19.2 12.8 19.2 6.4 0 19.2-6.4 19.2-12.8l19.2-102.4c0 0 0 0 0 0C800 160 800 153.6 793.6 153.6z"  /><path d="M224 672l96 0 0 224-96 0 0-224Z"  /><path d="M384 608l96 0 0 288-96 0 0-288Z"  /><path d="M544 512l96 0 0 384-96 0 0-384Z"  /><path d="M704 448l96 0 0 448-96 0 0-448Z"  /></svg>